<svg width="264" height="264" viewBox="0 0 264 264" fill="none" xmlns="http://www.w3.org/2000/svg">
<g clip-path="url(#clip0_1_167)">
<rect width="264" height="264" fill="#FFFFF5"/>
<path d="M213 98C213 142.735 176.735 179 132 179C87.2649 179 51 142.735 51 98C51 53.2649 87.2649 17 132 17C176.735 17 213 53.2649 213 98Z" fill="#FFFFF5" stroke="#A58E63" stroke-width="8"/>
<path d="M191 98C191 130.585 164.585 157 132 157C99.4152 157 73 130.585 73 98C73 65.4152 99.4152 39 132 39C164.585 39 191 65.4152 191 98Z" fill="#FFFFF5" stroke="#A58E63" stroke-width="8"/>
<circle cx="132" cy="98" r="37" fill="#FFFFF5" stroke="black" stroke-width="9"/>
<circle cx="89" cy="138" r="12" fill="#FFFFF5"/>
<circle cx="89" cy="138" r="6.46154" fill="#FFFFF5" stroke="#B8A174" stroke-width="4"/>
<circle cx="89" cy="58" r="12" fill="#FFFFF5"/>
<circle cx="89" cy="58" r="6.46154" fill="#FFFFF5" stroke="#B8A174" stroke-width="4"/>
<circle cx="172" cy="138" r="12" fill="#FFFFF5"/>
<circle cx="172" cy="138" r="6.46154" fill="#FFFFF5" stroke="#B8A174" stroke-width="4"/>
<circle cx="172" cy="58" r="12" fill="#FFFFF5"/>
<circle cx="172" cy="58" r="6.46154" fill="#FFFFF5" stroke="#B8A174" stroke-width="4"/>
<circle cx="132" cy="178" r="12" fill="#FFFFF5"/>
<circle cx="132" cy="178" r="6.46154" fill="#FFFFF5" stroke="black" stroke-width="4"/>
<circle cx="132" cy="17" r="12" fill="#FFFFF5"/>
<circle cx="132" cy="17" r="6.46154" fill="#FFFFF5" stroke="black" stroke-width="4"/>
<circle cx="51" cy="98" r="12" fill="#FFFFF5"/>
<circle cx="51" cy="98" r="6.46154" fill="#FFFFF5" stroke="black" stroke-width="4"/>
<circle cx="213" cy="98" r="12" fill="#FFFFF5"/>
<circle cx="213" cy="98" r="6.46154" fill="#FFFFF5" stroke="black" stroke-width="4"/>
<ellipse cx="132.004" cy="97.5223" rx="27.0038" ry="27.5223" fill="#B8A174"/>
<g filter="url(#filter0_f_1_167)">
<ellipse cx="125.046" cy="88.0477" rx="11.5418" ry="11.8244" fill="white"/>
</g>
<g filter="url(#filter1_f_1_167)">
<ellipse cx="123.831" cy="89.2924" rx="6.68208" ry="6.84569" fill="white"/>
</g>
<g filter="url(#filter2_f_1_167)">
<path fill-rule="evenodd" clip-rule="evenodd" d="M155.567 93.7787C153.834 102.667 148.498 110.748 140.209 115.567C134.595 118.831 128.409 120.143 122.398 119.715C129.5 122.432 137.443 121.944 145.087 117.5C154.756 111.878 157.356 103.365 155.567 93.7787Z" fill="#533B19" fill-opacity="0.4"/>
</g>
<path d="M84.0533 259V236.6H89.3653V255.144H97.0773V259H84.0533ZM124.277 259H118.933L117.973 254.2H112.053L111.093 259H105.749L110.869 236.6H119.157L124.277 259ZM114.837 240.456L112.805 250.344H117.221L115.189 240.456H114.837ZM134.402 259V236.6H142.61C143.143 236.6 143.746 236.637 144.418 236.712C145.09 236.776 145.767 236.909 146.45 237.112C147.143 237.315 147.772 237.619 148.338 238.024C148.914 238.419 149.372 238.947 149.714 239.608C150.066 240.259 150.242 241.08 150.242 242.072C150.242 243.192 150.039 244.125 149.634 244.872C149.239 245.608 148.754 246.168 148.178 246.552C147.612 246.936 147.068 247.16 146.546 247.224C147.015 247.267 147.516 247.4 148.05 247.624C148.594 247.848 149.1 248.173 149.57 248.6C150.05 249.027 150.439 249.571 150.738 250.232C151.047 250.893 151.202 251.688 151.202 252.616C151.202 254.035 150.908 255.219 150.322 256.168C149.735 257.107 148.935 257.816 147.922 258.296C146.919 258.765 145.783 259 144.514 259H134.402ZM139.682 255.144H142.45C143.09 255.144 143.671 255.059 144.194 254.888C144.716 254.707 145.127 254.408 145.426 253.992C145.735 253.565 145.89 252.979 145.89 252.232C145.89 251.421 145.724 250.813 145.394 250.408C145.074 249.992 144.647 249.715 144.114 249.576C143.591 249.427 143.026 249.352 142.418 249.352H139.682V255.144ZM139.682 245.544H141.922C142.562 245.544 143.122 245.459 143.602 245.288C144.082 245.117 144.455 244.84 144.722 244.456C144.988 244.061 145.122 243.539 145.122 242.888C145.122 242.419 145.047 242.029 144.898 241.72C144.759 241.4 144.551 241.149 144.274 240.968C143.996 240.776 143.655 240.643 143.25 240.568C142.855 240.493 142.396 240.456 141.874 240.456H139.682V245.544ZM169.294 259.352C167.822 259.352 166.462 259.128 165.214 258.68C163.977 258.232 162.926 257.603 162.062 256.792C161.209 255.981 160.638 255.037 160.35 253.96L165.374 251.864C165.545 252.451 165.822 253.011 166.206 253.544C166.59 254.067 167.076 254.504 167.662 254.856C168.249 255.197 168.921 255.368 169.678 255.368C170.34 255.368 170.894 255.283 171.342 255.112C171.801 254.931 172.148 254.664 172.382 254.312C172.628 253.96 172.75 253.523 172.75 253C172.75 252.616 172.628 252.264 172.382 251.944C172.137 251.624 171.796 251.331 171.358 251.064C170.932 250.787 170.43 250.536 169.854 250.312C169.289 250.077 168.676 249.853 168.014 249.64C167.033 249.331 166.116 248.984 165.262 248.6C164.409 248.216 163.657 247.757 163.006 247.224C162.366 246.68 161.865 246.035 161.502 245.288C161.14 244.531 160.958 243.635 160.958 242.6C160.958 241.736 161.118 240.973 161.438 240.312C161.769 239.64 162.217 239.059 162.782 238.568C163.358 238.077 164.014 237.672 164.75 237.352C165.486 237.032 166.265 236.797 167.086 236.648C167.908 236.488 168.734 236.408 169.566 236.408C170.964 236.408 172.244 236.616 173.406 237.032C174.569 237.448 175.54 238.008 176.318 238.712C177.108 239.416 177.636 240.211 177.902 241.096L172.942 243.224C172.772 242.669 172.521 242.179 172.19 241.752C171.86 241.325 171.454 240.995 170.974 240.76C170.505 240.515 169.966 240.392 169.358 240.392C168.953 240.392 168.574 240.435 168.222 240.52C167.881 240.605 167.577 240.733 167.31 240.904C167.044 241.075 166.836 241.288 166.686 241.544C166.548 241.8 166.478 242.099 166.478 242.44C166.478 242.899 166.622 243.309 166.91 243.672C167.209 244.024 167.641 244.344 168.206 244.632C168.772 244.909 169.449 245.176 170.238 245.432C170.921 245.645 171.63 245.891 172.366 246.168C173.113 246.445 173.833 246.771 174.526 247.144C175.23 247.517 175.86 247.96 176.414 248.472C176.98 248.984 177.428 249.581 177.758 250.264C178.089 250.936 178.254 251.72 178.254 252.616C178.254 253.619 178.084 254.499 177.742 255.256C177.401 256.003 176.932 256.637 176.334 257.16C175.748 257.672 175.07 258.093 174.302 258.424C173.534 258.744 172.718 258.979 171.854 259.128C171.001 259.277 170.148 259.352 169.294 259.352Z" fill="black"/>
<path d="M48.8912 226V196.6H59.8112C60.6372 196.6 61.5472 196.691 62.5412 196.873C63.5492 197.041 64.5432 197.349 65.5232 197.797C66.5172 198.245 67.4272 198.861 68.2532 199.645C69.0792 200.429 69.7372 201.43 70.2272 202.648C70.7312 203.852 70.9832 205.315 70.9832 207.037C70.9832 208.759 70.7312 210.229 70.2272 211.447C69.7372 212.665 69.0792 213.673 68.2532 214.471C67.4272 215.255 66.5172 215.878 65.5232 216.34C64.5432 216.788 63.5492 217.103 62.5412 217.285C61.5472 217.467 60.6372 217.558 59.8112 217.558H56.7872V226H48.8912ZM56.7872 211.888H59.0972C59.6712 211.888 60.1962 211.79 60.6722 211.594C61.1482 211.398 61.5612 211.104 61.9112 210.712C62.2612 210.306 62.5272 209.802 62.7092 209.2C62.9052 208.584 63.0032 207.87 63.0032 207.058C63.0032 206.232 62.9052 205.525 62.7092 204.937C62.5272 204.335 62.2612 203.838 61.9112 203.446C61.5612 203.04 61.1482 202.746 60.6722 202.564C60.1962 202.368 59.6712 202.27 59.0972 202.27H56.7872V211.888ZM87.2956 226V196.6H107.834V202.27H95.1496V208.738H106.406V214.366H95.1496V220.33H107.834V226H87.2956ZM147.666 226H139.749L138.699 220.078H131.685L130.635 226H122.718L129.102 196.6H141.282L147.666 226ZM134.982 202.27L132.777 214.408H137.607L135.402 202.27H134.982ZM161.962 226V196.6H174.268C175.094 196.6 175.983 196.677 176.935 196.831C177.887 196.985 178.818 197.251 179.728 197.629C180.638 197.993 181.464 198.511 182.206 199.183C182.962 199.841 183.564 200.681 184.012 201.703C184.46 202.725 184.684 203.964 184.684 205.42C184.684 207.044 184.432 208.402 183.928 209.494C183.424 210.586 182.759 211.468 181.933 212.14C181.121 212.798 180.232 213.302 179.266 213.652C178.3 213.988 177.341 214.212 176.389 214.324C175.437 214.436 174.59 214.492 173.848 214.492H169.816V226H161.962ZM176.872 226L171.979 212.476L179.665 211.678L185.188 226H176.872ZM169.816 209.074H172.546C173.442 209.074 174.212 208.962 174.856 208.738C175.5 208.514 175.997 208.157 176.347 207.667C176.697 207.163 176.872 206.491 176.872 205.651C176.872 204.755 176.697 204.069 176.347 203.593C175.997 203.103 175.5 202.76 174.856 202.564C174.212 202.368 173.442 202.27 172.546 202.27H169.816V209.074ZM199.359 226V196.6H207.255V220.33H216.957V226H199.359Z" fill="black"/>
</g>
<defs>
<filter id="filter0_f_1_167" x="93.5045" y="56.2234" width="63.0835" height="63.6487" filterUnits="userSpaceOnUse" color-interpolation-filters="sRGB">
<feFlood flood-opacity="0" result="BackgroundImageFix"/>
<feBlend mode="normal" in="SourceGraphic" in2="BackgroundImageFix" result="shape"/>
<feGaussianBlur stdDeviation="10" result="effect1_foregroundBlur_1_167"/>
</filter>
<filter id="filter1_f_1_167" x="105.149" y="70.4467" width="37.3642" height="37.6914" filterUnits="userSpaceOnUse" color-interpolation-filters="sRGB">
<feFlood flood-opacity="0" result="BackgroundImageFix"/>
<feBlend mode="normal" in="SourceGraphic" in2="BackgroundImageFix" result="shape"/>
<feGaussianBlur stdDeviation="6" result="effect1_foregroundBlur_1_167"/>
</filter>
<filter id="filter2_f_1_167" x="116.398" y="87.7787" width="45.6945" height="39.6104" filterUnits="userSpaceOnUse" color-interpolation-filters="sRGB">
<feFlood flood-opacity="0" result="BackgroundImageFix"/>
<feBlend mode="normal" in="SourceGraphic" in2="BackgroundImageFix" result="shape"/>
<feGaussianBlur stdDeviation="3" result="effect1_foregroundBlur_1_167"/>
</filter>
<clipPath id="clip0_1_167">
<rect width="264" height="264" fill="white"/>
</clipPath>
</defs>
</svg>
