<svg width="264" height="264" viewBox="0 0 264 264" fill="none" xmlns="http://www.w3.org/2000/svg">
<g clip-path="url(#clip0_1_167)">
<rect width="264" height="264" fill="#F6F6EF"/>
<path d="M213 98C213 142.735 176.735 179 132 179C87.2649 179 51 142.735 51 98C51 53.2649 87.2649 17 132 17C176.735 17 213 53.2649 213 98Z" fill="#F6F6EF" stroke="#A58E63" stroke-width="8"/>
<path d="M191 98C191 130.585 164.585 157 132 157C99.4152 157 73 130.585 73 98C73 65.4152 99.4152 39 132 39C164.585 39 191 65.4152 191 98Z" fill="#F6F6EF" stroke="#A58E63" stroke-width="8"/>
<circle cx="132" cy="98" r="37" fill="#F6F6EF" stroke="#1A1A1A" stroke-width="9"/>
<circle cx="89" cy="138" r="12" fill="#F6F6EF"/>
<circle cx="89" cy="138" r="6.46154" fill="#F6F6EF" stroke="#D5CAAA" stroke-width="4"/>
<circle cx="89" cy="58" r="12" fill="#F6F6EF"/>
<circle cx="89" cy="58" r="6.46154" fill="#F6F6EF" stroke="#D5CAAA" stroke-width="4"/>
<circle cx="172" cy="138" r="12" fill="#F6F6EF"/>
<circle cx="172" cy="138" r="6.46154" fill="#F6F6EF" stroke="#D5CAAA" stroke-width="4"/>
<circle cx="172" cy="58" r="12" fill="#F6F6EF"/>
<circle cx="172" cy="58" r="6.46154" fill="#F6F6EF" stroke="#D5CAAA" stroke-width="4"/>
<circle cx="132" cy="178" r="12" fill="#F6F6EF"/>
<circle cx="132" cy="178" r="6.46154" fill="#F6F6EF" stroke="#1A1A1A" stroke-width="4"/>
<circle cx="132" cy="17" r="12" fill="#F6F6EF"/>
<circle cx="132" cy="17" r="6.46154" fill="#F6F6EF" stroke="#1A1A1A" stroke-width="4"/>
<circle cx="51" cy="98" r="12" fill="#F6F6EF"/>
<circle cx="51" cy="98" r="6.46154" fill="#F6F6EF" stroke="#1A1A1A" stroke-width="4"/>
<circle cx="213" cy="98" r="12" fill="#F6F6EF"/>
<circle cx="213" cy="98" r="6.46154" fill="#F6F6EF" stroke="#1A1A1A" stroke-width="4"/>
<ellipse cx="132.004" cy="97.5223" rx="27.0038" ry="27.5223" fill="#B8A174"/>
<g filter="url(#filter0_f_1_167)">
<ellipse cx="125.046" cy="88.0477" rx="11.5418" ry="11.8244" fill="white"/>
</g>
<g filter="url(#filter1_f_1_167)">
<ellipse cx="123.831" cy="89.2924" rx="6.68208" ry="6.84569" fill="white"/>
</g>
<g filter="url(#filter2_f_1_167)">
<path fill-rule="evenodd" clip-rule="evenodd" d="M155.567 93.7787C153.834 102.667 148.498 110.748 140.209 115.567C134.595 118.831 128.409 120.143 122.398 119.715C129.5 122.432 137.443 121.944 145.087 117.5C154.756 111.878 157.356 103.365 155.567 93.7787Z" fill="#533B19" fill-opacity="0.4"/>
</g>
<path d="M79.6341 261V238.6H84.8181V256.776H96.0501V261H79.6341ZM102.559 261L112.543 238.6H117.663L127.679 261H122.239L114.047 241.224H116.095L107.871 261H102.559ZM107.551 256.2L108.927 252.264H120.447L121.855 256.2H107.551ZM136.403 261V238.6H147.347C150.163 238.6 152.275 239.133 153.683 240.2C155.112 241.267 155.827 242.675 155.827 244.424C155.827 245.597 155.539 246.621 154.963 247.496C154.387 248.349 153.598 249.011 152.595 249.48C151.592 249.949 150.44 250.184 149.139 250.184L149.747 248.872C151.155 248.872 152.403 249.107 153.491 249.576C154.579 250.024 155.422 250.696 156.019 251.592C156.638 252.488 156.947 253.587 156.947 254.888C156.947 256.808 156.19 258.312 154.675 259.4C153.16 260.467 150.931 261 147.987 261H136.403ZM141.555 257.096H147.603C148.947 257.096 149.96 256.883 150.643 256.456C151.347 256.008 151.699 255.304 151.699 254.344C151.699 253.405 151.347 252.712 150.643 252.264C149.96 251.795 148.947 251.56 147.603 251.56H141.171V247.784H146.707C147.966 247.784 148.926 247.571 149.587 247.144C150.27 246.696 150.611 246.024 150.611 245.128C150.611 244.253 150.27 243.603 149.587 243.176C148.926 242.728 147.966 242.504 146.707 242.504H141.555V257.096ZM174.632 261.384C172.84 261.384 171.122 261.149 169.48 260.68C167.837 260.189 166.514 259.56 165.512 258.792L167.272 254.888C168.232 255.571 169.362 256.136 170.664 256.584C171.986 257.011 173.32 257.224 174.664 257.224C175.688 257.224 176.509 257.128 177.128 256.936C177.768 256.723 178.237 256.435 178.536 256.072C178.834 255.709 178.984 255.293 178.984 254.824C178.984 254.227 178.749 253.757 178.28 253.416C177.81 253.053 177.192 252.765 176.424 252.552C175.656 252.317 174.802 252.104 173.864 251.912C172.946 251.699 172.018 251.443 171.08 251.144C170.162 250.845 169.32 250.461 168.552 249.992C167.784 249.523 167.154 248.904 166.664 248.136C166.194 247.368 165.96 246.387 165.96 245.192C165.96 243.912 166.301 242.749 166.984 241.704C167.688 240.637 168.733 239.795 170.12 239.176C171.528 238.536 173.288 238.216 175.4 238.216C176.808 238.216 178.194 238.387 179.56 238.728C180.925 239.048 182.13 239.539 183.176 240.2L181.576 244.136C180.53 243.539 179.485 243.101 178.44 242.824C177.394 242.525 176.37 242.376 175.368 242.376C174.365 242.376 173.544 242.493 172.904 242.728C172.264 242.963 171.805 243.272 171.528 243.656C171.25 244.019 171.112 244.445 171.112 244.936C171.112 245.512 171.346 245.981 171.816 246.344C172.285 246.685 172.904 246.963 173.672 247.176C174.44 247.389 175.282 247.603 176.2 247.816C177.138 248.029 178.066 248.275 178.984 248.552C179.922 248.829 180.776 249.203 181.544 249.672C182.312 250.141 182.93 250.76 183.4 251.528C183.89 252.296 184.136 253.267 184.136 254.44C184.136 255.699 183.784 256.851 183.08 257.896C182.376 258.941 181.32 259.784 179.912 260.424C178.525 261.064 176.765 261.384 174.632 261.384Z" fill="#1A1A1A"/>
<path d="M39.6812 229V199.6H53.1212C55.8092 199.6 58.1192 200.034 60.0512 200.902C62.0112 201.77 63.5232 203.03 64.5872 204.682C65.6512 206.306 66.1832 208.238 66.1832 210.478C66.1832 212.69 65.6512 214.608 64.5872 216.232C63.5232 217.856 62.0112 219.116 60.0512 220.012C58.1192 220.88 55.8092 221.314 53.1212 221.314H44.3012L47.9972 217.702V229H39.6812ZM47.9972 218.584L44.3012 214.762H52.6172C54.3532 214.762 55.6412 214.384 56.4812 213.628C57.3492 212.872 57.7832 211.822 57.7832 210.478C57.7832 209.106 57.3492 208.042 56.4812 207.286C55.6412 206.53 54.3532 206.152 52.6172 206.152H44.3012L47.9972 202.33V218.584ZM88.3819 210.982H102.032V217.198H88.3819V210.982ZM88.9699 222.574H104.342V229H80.7379V199.6H103.796V206.026H88.9699V222.574ZM115.929 229L128.907 199.6H137.097L150.117 229H141.465L131.301 203.674H134.577L124.413 229H115.929ZM123.027 223.288L125.169 217.156H139.533L141.675 223.288H123.027ZM162.974 229V199.6H176.414C179.102 199.6 181.412 200.034 183.344 200.902C185.304 201.77 186.816 203.03 187.88 204.682C188.944 206.306 189.476 208.238 189.476 210.478C189.476 212.69 188.944 214.608 187.88 216.232C186.816 217.828 185.304 219.06 183.344 219.928C181.412 220.768 179.102 221.188 176.414 221.188H167.594L171.29 217.702V229H162.974ZM181.16 229L173.852 218.29H182.714L190.064 229H181.16ZM171.29 218.584L167.594 214.762H175.91C177.646 214.762 178.934 214.384 179.774 213.628C180.642 212.872 181.076 211.822 181.076 210.478C181.076 209.106 180.642 208.042 179.774 207.286C178.934 206.53 177.646 206.152 175.91 206.152H167.594L171.29 202.33V218.584ZM204.564 229V199.6H212.88V222.406H226.908V229H204.564Z" fill="#1A1A1A"/>
</g>
<defs>
<filter id="filter0_f_1_167" x="93.5045" y="56.2234" width="63.0835" height="63.6487" filterUnits="userSpaceOnUse" color-interpolation-filters="sRGB">
<feFlood flood-opacity="0" result="BackgroundImageFix"/>
<feBlend mode="normal" in="SourceGraphic" in2="BackgroundImageFix" result="shape"/>
<feGaussianBlur stdDeviation="10" result="effect1_foregroundBlur_1_167"/>
</filter>
<filter id="filter1_f_1_167" x="105.149" y="70.4467" width="37.3642" height="37.6914" filterUnits="userSpaceOnUse" color-interpolation-filters="sRGB">
<feFlood flood-opacity="0" result="BackgroundImageFix"/>
<feBlend mode="normal" in="SourceGraphic" in2="BackgroundImageFix" result="shape"/>
<feGaussianBlur stdDeviation="6" result="effect1_foregroundBlur_1_167"/>
</filter>
<filter id="filter2_f_1_167" x="116.398" y="87.7787" width="45.6945" height="39.6104" filterUnits="userSpaceOnUse" color-interpolation-filters="sRGB">
<feFlood flood-opacity="0" result="BackgroundImageFix"/>
<feBlend mode="normal" in="SourceGraphic" in2="BackgroundImageFix" result="shape"/>
<feGaussianBlur stdDeviation="3" result="effect1_foregroundBlur_1_167"/>
</filter>
<clipPath id="clip0_1_167">
<rect width="264" height="264" fill="white"/>
</clipPath>
</defs>
</svg>
